<?xml version="1.0" encoding="utf-8"?>
<!-- Generator: Adobe Illustrator 19.2.1, SVG Export Plug-In . SVG Version: 6.00 Build 0)  -->
<svg version="1.1" id="Lager_1" xmlns="http://www.w3.org/2000/svg" xmlns:xlink="http://www.w3.org/1999/xlink" x="0px" y="0px"
	 width="538.5px" height="290.1px" viewBox="0 0 538.5 290.1" style="enable-background:new 0 0 538.5 290.1;" xml:space="preserve"
	>
<g>
	<path d="M538.5,186.8c-7.5-1.5-18.5-1.4-25.6,7.8v-8.1h-25.4v101.2h25.4v-61.7c0-8.7,3.3-13.1,13.2-13.4c9.6-0.3,12.4,1.8,12.4,1.8
		V186.8z M428.2,206.1c13.8,0,22.3,8.7,23.5,20.1h-45.8C407.2,214.6,415.3,206.1,428.2,206.1 M477.6,245.2c0.4-4.4,0.4-7.9,0.4-10.4
		c0-30.3-19.1-50.1-49.6-50.1c-29.3,0-49.8,22.3-49.8,52.6c0,32.2,21.2,52,51.8,52c24.6,0,38.2-13.6,44.3-26.3L456,251.7
		c-5.3,8.3-12.7,15.1-25.5,15.1c-14.4,0-23.8-8.1-25.2-21.6H477.6z M343.8,266.4c-14.6,0-27.2-11.2-27.2-29.3
		c0-16.8,10.4-29.5,27.1-29.5c10,0,16.6,4.4,20.8,8.3l14.6-17.6c-6.1-6.2-17.2-13.6-35.6-13.6c-30.3,0-52.2,23.1-52.2,52.6
		c0,29.3,20.4,52,52.4,52c17.4,0,29.3-7.8,35.4-14.2l-14-17C360.4,261.9,354,266.4,343.8,266.4 M258.1,287.6h25.4v-66.8
		c0-19.5-7.9-35.6-31.6-35.6c-12.5,0-18.9,5.7-21.4,8.7v-7.6h-25.4v101.2h25.4v-63.8c0-9.6,4.9-16.1,14-16.1
		c9.3,0,13.6,6.2,13.6,16.1V287.6z M137.7,254.3c0-8.1,5.9-14.4,14.6-14.4c8.5,0,14.8,5.9,14.8,14.4c0,8.5-6.2,14.6-14.6,14.6
		C143.8,268.9,137.7,262.8,137.7,254.3 M113.9,254.5c0,21,14.9,34.4,35.2,34.4c11.7,0,18.5-4.7,21.4-7.8v6.4h21.2v-63.8
		c0-22.5-9.1-38.6-38.2-38.6c-23.8,0-35.4,12.7-35.9,31.8h23.7c0-5.7,2.8-11.7,12.3-11.7c9.5,0,13.2,6.2,13.2,14.9v5.1
		c-2.6-1.7-8.9-4.2-18-4.2C127.7,221.2,113.9,235.6,113.9,254.5 M96.9,254.5c-5.5,4.7-14.8,11-28,11c-24.6,0-41.1-18.5-41.1-43.3
		c0-24.6,15.3-43.5,40.7-43.5c12.1,0,21.8,5.3,27.8,10.6l15.5-19.7c-10.4-9.3-24.8-15.3-43.5-15.3c-40.9,0-68.1,29.7-68.1,68.1
		c0,38.6,26.5,67.7,68.7,67.7c18.9,0,33.3-7.4,43.3-17.2L96.9,254.5z"/>
	<path d="M230.4,80.5c0-17,11-29.9,28-29.9c16.6,0,27.8,12.9,27.8,29.9c0,16.8-10.8,29.7-27.8,29.7C242,110.2,230.4,97.5,230.4,80.5
		 M286.8,39.2c-6.4-6.8-17.2-11.2-30.3-11.2c-30.3,0-51.5,23.3-51.5,52.6c0,30.8,21.2,52,52.4,52c14.4,0,23.6-6.2,28-11.4v1.3
		c-0.2,14.8-12.9,21.2-28.8,21.2c-12.7,0-23.6-4-29.7-7.4l-8.1,20.1c8.3,4.7,21.8,9.1,37.7,9.1c31.4,0,54.1-13.6,54.1-51.7V29.8
		h-23.8V39.2z M172.9,131h25.4V64.2c0-19.5-7.9-35.6-31.6-35.6c-12.5,0-18.9,5.7-21.4,8.7v-7.6h-25.4V131h25.4V67.2
		c0-9.6,4.9-16.1,14-16.1c9.3,0,13.6,6.2,13.6,16.1V131z M56,133.4c34.2,0,52.4-22.7,52.4-53.7V0.1H82.1v79.7
		c0,17-8.5,29.1-25.7,29.1c-18,0-26.1-11.7-26.1-28.9V0.1H4v79.8C4,112.1,20.4,133.4,56,133.4"/>
</g>
</svg>
